<?xml version="1.0" encoding="utf-8"?>
<!-- Generator: Adobe Illustrator 21.0.2, SVG Export Plug-In . SVG Version: 6.00 Build 0)  -->
<svg version="1.1" id="Layer_1" xmlns="http://www.w3.org/2000/svg" xmlns:xlink="http://www.w3.org/1999/xlink" x="0px" y="0px"
	 viewBox="0 0 769.2 1000" enable-background="new 0 0 769.2 1000" xml:space="preserve">
<path d="M757.7,357.7L411.5,11.5C403.8,3.8,392.3,0,384.6,0c-11.5,0-19.2,3.8-26.9,11.5L11.5,357.7C3.8,365.4,0,373.1,0,384.6
	c0,11.5,3.8,19.2,11.5,26.9l53.8,53.8c15.4,15.4,38.5,15.4,53.8,0l153.8-153.8c11.5-11.5,34.6-3.8,34.6,15.4v634.6
	c0,23.1,15.4,38.5,38.5,38.5h76.9c23.1,0,38.5-15.4,38.5-38.5V323.1c0-15.4,19.2-26.9,34.6-15.4L650,461.5
	c15.4,15.4,38.5,15.4,53.8,0l53.8-53.8c7.7-7.7,11.5-15.4,11.5-26.9C769.2,373.1,765.4,365.4,757.7,357.7z"/>
</svg>
