<?xml version="1.0" encoding="utf-8"?>
<!-- Generator: Adobe Illustrator 21.0.2, SVG Export Plug-In . SVG Version: 6.00 Build 0)  -->
<svg version="1.1" id="Layer_1" xmlns="http://www.w3.org/2000/svg" xmlns:xlink="http://www.w3.org/1999/xlink" x="0px" y="0px"
	 viewBox="0 0 1000 1000" enable-background="new 0 0 1000 1000" xml:space="preserve">
<title>x-mark</title>
<g id="X-Mark">
	<g id="Outline">
		<path d="M725.5,500l223.7-223.9c64.4-60,68-160.9,8-225.3c-60-64.4-160.9-68-225.3-8c-2.7,2.6-5.4,5.2-8,8L500,274.5L276.1,50.7
			l0,0c-60-64.4-160.9-68-225.3-8s-68,160.9-8,225.3c2.6,2.7,5.2,5.4,8,8L274.5,500L50.7,723.9c-64.4,60-68,160.9-8,225.3
			s160.9,68,225.3,8c2.7-2.6,5.4-5.2,8-8l0,0L500,725.5l223.9,223.7c60,64.4,160.9,68,225.3,8s68-160.9,8-225.3
			c-2.6-2.7-5.2-5.4-8-8L725.5,500z M773.9,100.7c34-35.2,90.1-36.2,125.2-2.2s36.2,90.1,2.2,125.2c-0.7,0.7-1.4,1.5-2.2,2.2l0,0
			l-84.9,84.9L689,185.6L773.9,100.7z M226.1,899.3c-34,35.2-90.1,36.2-125.2,2.2c-35.2-34-36.2-90.1-2.2-125.2
			c0.7-0.7,1.4-1.5,2.2-2.2l84.9-84.9L311,814.4L226.1,899.3z M789.3,336l-164,164l274.1,273.9l0,0c34.6,34.5,34.7,90.6,0.2,125.3
			c-16.7,16.7-39.3,26.1-62.9,26c-23.5,0-46.1-9.3-62.7-25.9L500,625.2l-164,164L210.7,664l164-164L100.7,226.1
			c-35.2-34-36.2-90.1-2.2-125.2s90.1-36.2,125.2-2.2c0.7,0.7,1.5,1.4,2.2,2.2L500,374.8l164-164"/>
	</g>
</g>
</svg>
