<?xml version="1.0" encoding="utf-8"?>
<!-- Generator: Adobe Illustrator 21.0.2, SVG Export Plug-In . SVG Version: 6.00 Build 0)  -->
<svg version="1.1" id="Layer_1" xmlns="http://www.w3.org/2000/svg" xmlns:xlink="http://www.w3.org/1999/xlink" x="0px" y="0px"
	 viewBox="0 0 1000 1000" enable-background="new 0 0 1000 1000" xml:space="preserve">
<title>magnify</title>
<g id="Magnify">
	<g id="Cream">
		<path fill="#F0EFE3" d="M781.2,406.3c0-207.1-167.9-374.9-374.9-374.9S31.3,199.2,31.3,406.3s167.9,374.9,374.9,374.9
			S781.2,613.3,781.2,406.3z M406.3,671.8c-146.7,0-265.6-118.9-265.6-265.6s118.9-265.6,265.6-265.6s265.6,118.9,265.6,265.6
			S552.9,671.8,406.3,671.8L406.3,671.8z M716,627.6L627.6,716l234.3,234.3l88.4-88.4L716,627.6z"/>
	</g>
	<g id="Outline">
		<path fill="#5F4E56" d="M972.4,839.9L752,619.5c117.7-191,58.3-441.2-132.6-558.9S178.2,2.3,60.5,193.2S2.1,634.4,193.1,752.1
			c130.7,80.5,295.6,80.5,426.2,0l220.6,220.3l0,0c36.6,36.6,96,36.6,132.6,0c36.6-36.6,36.6-96,0-132.6L972.4,839.9z M406.3,749.9
			c-189.8,0-343.7-153.9-343.7-343.7S216.5,62.6,406.3,62.6s343.7,153.9,343.7,343.7S596.1,749.9,406.3,749.9L406.3,749.9z
			 M818.4,862.6L670.4,714.6c15.8-13.6,30.6-28.4,44.2-44.2l147.9,147.9L818.4,862.6z M906.1,937.4c-8.3,0-16.2-3.3-22-9.2
			l-43.6-43.6l44.2-44.2l43.6,43.6c12.3,12.2,12.3,31.9,0.2,44.2C922.6,934.1,914.5,937.4,906.1,937.4z M406.3,125.1
			C251,125.1,125.1,251,125.1,406.3S251,687.4,406.3,687.4s281.2-125.9,281.2-281.2S561.6,125.1,406.3,125.1z M406.3,656.2
			c-138,0-249.9-111.9-249.9-249.9s111.9-249.9,249.9-249.9s249.9,111.9,249.9,249.9S544.3,656.2,406.3,656.2z"/>
	</g>
</g>
</svg>
