<?xml version="1.0" encoding="utf-8"?>
<!-- Generator: Adobe Illustrator 21.0.2, SVG Export Plug-In . SVG Version: 6.00 Build 0)  -->
<svg version="1.1" id="Layer_1" xmlns="http://www.w3.org/2000/svg" xmlns:xlink="http://www.w3.org/1999/xlink" x="0px" y="0px"
	 viewBox="0 0 1000 693.6" enable-background="new 0 0 1000 693.6" xml:space="preserve">
<g>
	<g>
		<path d="M959.6,306.4H40.4C18.1,306.4,0,324.5,0,346.8s18.1,40.4,40.4,40.4h919.2c22.3,0,40.4-18.1,40.4-40.4
			C1000,324.5,981.9,306.4,959.6,306.4z"/>
	</g>
</g>
<g>
	<g>
		<path d="M959.6,0H40.4C18.1,0,0,18.1,0,40.4s18.1,40.4,40.4,40.4h919.2c22.3,0,40.4-18.1,40.4-40.4S981.9,0,959.6,0z"/>
	</g>
</g>
<g>
	<g>
		<path d="M959.6,612.8H40.4C18.1,612.8,0,630.9,0,653.2s18.1,40.4,40.4,40.4h919.2c22.3,0,40.4-18.1,40.4-40.4
			S981.9,612.8,959.6,612.8z"/>
	</g>
</g>
</svg>
